<?xml version="1.0" encoding="utf-8"?>
<!DOCTYPE svg PUBLIC "-//W3C//DTD SVG 20010904//EN" "http://www.w3.org/TR/2001/REC-SVG-20010904/DTD/svg10.dtd">
<svg version="1.0" xmlns="http://www.w3.org/2000/svg" width="300px" height="300px" viewBox="0 0 300 300" preserveAspectRatio="xMidYMid meet">
 <g fill="#000000">
  <path d="M147.2 232.8 c-0.6 -0.6 -1.2 -2.9 -1.2 -5 0 -2.5 -0.5 -3.8 -1.3 -3.8 -0.8 0 -2.3 -1 -3.5 -2.3 -3 -3.1 -3.1 -12.7 -0.3 -15.4 1 -1 2.2 -4 2.6 -6.8 0.4 -2.7 1.3 -5.4 2.1 -6 1.1 -0.7 0.1 -0.9 -3.4 -0.7 -4.2 0.3 -5.2 0 -6.8 -2 -1.3 -1.7 -3.8 -2.8 -8.3 -3.8 -8.3 -1.7 -10.1 -3.7 -10.1 -11 0 -7.5 1.9 -9.3 8.9 -8.9 3 0.3 5.1 0 5.1 -0.6 0 -0.6 -2.4 -4.3 -5.4 -8.2 -11.7 -15.8 -12.8 -21.8 -6.2 -33 4.2 -7.2 5 -13.3 1.6 -13.3 -1.6 0 -2 -0.7 -2 -3.3 0 -4.3 1.5 -5.7 6.2 -5.7 2.6 0 3.8 -0.4 3.8 -1.4 0 -0.8 0.6 -1.6 1.3 -1.9 2 -0.8 4.7 -7 4.7 -10.8 0 -4.7 -2.1 -9.9 -4 -9.9 -0.9 0 -4.5 1.4 -7.9 3.1 -4.8 2.4 -6.5 3.8 -7.6 6.6 -1.7 4 -2 10.9 -0.5 11.8 1.4 0.9 1.2 9.8 -0.2 11.7 -2.4 2.9 -6.3 4.8 -9.8 4.8 -2.9 0 -4.1 -0.6 -6 -3.2 -1.3 -1.8 -2.9 -3.7 -3.7 -4.1 -1.5 -0.9 -1.7 -6.7 -0.4 -11.1 0.5 -1.7 1.4 -6.8 2 -11.4 1 -7.8 1.3 -8.6 5.7 -13.7 3.9 -4.5 14 -12.5 15.9 -12.5 1.3 0 4.5 -3.7 4.5 -5.2 0 -2.2 3 -3.5 10 -4.4 4.7 -0.6 4.9 -0.8 3 -2.1 -1.1 -0.8 -2 -2.4 -2 -3.6 -0.1 -1.2 -0.7 -3.3 -1.5 -4.7 -0.9 -1.6 -1.4 -5.4 -1.5 -10.3 0 -7.8 1.2 -11.4 4.9 -14.4 1.7 -1.5 13.3 -1.7 15.9 -0.4 0.9 0.6 2.9 1.2 4.3 1.5 4.8 1 6.3 4.9 8.5 22.1 l0.6 4 8.1 -0.7 c4.5 -0.3 8.6 -0.7 9.1 -0.7 0.5 -0.1 0.2 -0.9 -0.7 -1.9 -1 -1 -1.7 -2.6 -1.7 -3.6 0 -0.9 -1 -2 -2.3 -2.5 -4.1 -1.6 -4.8 -3.4 -4.5 -11.3 l0.3 -7.3 5 -0.3 c10.2 -0.7 18.5 2.9 18.5 7.9 0 1 0.4 1.9 0.8 2.1 3.1 1.2 12.2 18.5 12.2 23.1 0 3.3 -0.4 3.6 -10.2 9 -16.9 9.3 -16.1 8.5 -17.6 17.4 -2.7 16.3 -2.6 18.4 0.2 22.3 1.4 1.9 3.3 4.6 4.2 5.8 1 1.3 1.9 4.8 2.2 7.7 0.4 4.6 0.1 5.5 -1.7 6.7 -2.6 1.6 -2.6 1.8 0.5 9.7 3.3 8.3 5.2 18.9 6 34.4 l0.7 12.2 -9.3 7.9 c-8.3 7.2 -9.6 8.8 -13.4 16.5 -3.8 7.8 -6 11.2 -9.2 14.4 -0.8 0.8 -0.8 2.1 -0.1 4.4 0.8 2.5 1.6 3.3 3.4 3.3 4 0 6.4 3.5 6.1 8.8 l-0.3 4.7 -11.5 0.3 c-8.1 0.2 -11.9 -0.1 -12.8 -1z m12.4 -54.9 c1.6 -1.6 3.8 -5.2 4.8 -7.9 1 -2.8 3.2 -6.1 4.9 -7.6 3 -2.5 3 -2.7 1.9 -6.8 -2.8 -10.6 -5.6 -16.2 -10.3 -20.8 -2.6 -2.7 -5.4 -4.8 -6.2 -4.8 -1.9 0 -14.4 5.7 -15.2 6.9 -0.3 0.6 0.5 3.2 1.8 5.8 1.4 2.6 2.8 7.3 3.2 10.3 0.4 3 1.6 7.2 2.6 9.2 1.2 2.3 1.9 5.8 1.9 9.1 0 3 0.3 6.8 0.6 8.5 0.6 2.9 0.7 3 3.8 2 1.7 -0.6 4.5 -2.4 6.2 -3.9z m-28.1 -68.3 c0 -1.1 -0.6 -2.1 -1.2 -2.3 -0.7 -0.3 -1.3 0.1 -1.3 0.8 0 0.6 -0.8 1.8 -1.7 2.6 -1.6 1.2 -1.5 1.3 1.2 1.1 2.2 -0.2 3 -0.8 3 -2.2z"/>
 </g>
 <g fill="#ffffff">
  <path d="M126.5 292.6 c-61.6 -10.3 -107.8 -55.3 -120.2 -117.1 -2.7 -13.8 -2.4 -41.5 0.6 -55.5 12.8 -58.3 55.1 -100.6 113.4 -113.2 14.6 -3.1 41.8 -3.1 56.4 0 44.4 9.6 80.5 37.5 100.6 77.7 22.7 45.6 19.6 101 -7.9 143.3 -21.4 32.9 -52.3 54.3 -91.3 63.3 -11.2 2.6 -39.9 3.4 -51.6 1.5z m42.3 -63.6 c0.4 -2.5 -2.3 -5.3 -5.3 -5.4 -2.3 -0.1 -3 -0.8 -4.2 -4.1 -0.7 -2.2 -1.6 -4.7 -2 -5.5 -1.6 -3.8 -1.4 -5.2 0.7 -4.7 1.1 0.3 2 0.2 2 -0.2 0 -0.4 1 -1.8 2.1 -3 1.2 -1.3 4.1 -6.2 6.4 -11 3.9 -7.9 5.1 -9.5 13.4 -16.6 l9.1 -7.8 -0.5 -8.6 c-0.8 -12.3 -2.4 -22.4 -4.5 -28.7 -1.7 -4.9 -4.8 -11.1 -3.7 -7.4 0.2 0.8 0.7 2.6 1.1 4 l0.7 2.5 -1.5 -2.5 c-0.9 -1.6 -1.3 -4.2 -1 -7.2 0.2 -2.7 -0.1 -5 -0.7 -5.4 -0.6 -0.3 0.2 -1.4 2 -2.5 1.7 -1 3.1 -2.3 3.1 -2.9 0 -2 -2.7 -7.5 -4.4 -8.9 -3.6 -3 -5.6 -8.6 -5.2 -14.7 0.2 -3.3 0.9 -7 1.4 -8.4 0.5 -1.5 1.3 -5.6 1.7 -9.2 0.8 -7.6 0.6 -7.4 16.5 -16.1 4.7 -2.6 9.1 -5.1 9.8 -5.6 1.1 -0.7 0.8 -1.9 -1.3 -6.2 -3.1 -6 -8.5 -14.2 -9.7 -14.7 -0.4 -0.2 -0.8 -1.1 -0.8 -2.1 0 -2.9 -2.8 -5.8 -6.2 -6.5 -10.2 -2.2 -12.9 -1.6 -10.8 2.4 0.7 1.4 0.7 2.6 0.1 3.9 -0.8 1.4 -0.6 2.2 0.8 3.5 0.9 0.9 2.3 1.6 2.9 1.6 1.3 0 3.4 3.5 2.6 4.2 -0.3 0.3 1.4 2 3.7 3.8 l4.1 3.3 -2.4 1.3 c-1.2 0.7 -3.1 1.3 -4.1 1.4 -1 0 -2.9 0.8 -4.3 1.7 -2.1 1.3 -3 1.4 -4.5 0.5 -2.7 -1.7 -5.9 -1.5 -9.5 0.7 -1.7 1 -4 2.2 -5.2 2.5 -1.9 0.7 -2 0.4 -1.5 -3.1 0.3 -2.1 1.1 -4.1 1.6 -4.4 1.1 -0.8 0.1 -5.9 -1.1 -5.9 -0.4 0 -0.6 -1.8 -0.4 -3.9 0.4 -4.5 -2.1 -10.6 -5 -12.2 -1.9 -1 -1.9 -1 0.1 1.8 2.4 3.4 4 11.3 2.2 11.3 -0.7 0 -1.1 -0.8 -1 -1.8 0.1 -0.9 0 -2.1 -0.1 -2.7 -0.1 -0.5 -0.3 -1.5 -0.4 -2 -0.1 -1.4 -4.2 -6.5 -5.1 -6.5 -0.4 0 -1.3 -0.7 -2 -1.6 -1 -1.5 -1.4 -1.5 -4.1 -0.1 -3.6 1.8 -5.3 3.8 -5.9 6.3 -0.2 1.1 -0.8 3 -1.4 4.4 l-1 2.5 0 -2.8 c-0.1 -3.4 2.4 -9.7 3.8 -9.7 0.6 0 1.1 -0.4 1.1 -1 0 -1.9 -3 0.3 -5 3.6 -2.4 4.1 -2.6 11.7 -0.5 15.4 0.8 1.4 1.4 3.5 1.5 4.6 0 1.2 0.7 2.8 1.7 3.5 1.5 1.3 1.5 1.2 0.4 -0.9 -1 -1.9 -0.9 -2.2 0.7 -2.2 1.5 0 1.8 0.5 1.4 2.5 -0.2 1.4 0.3 3.6 1.3 5.1 0.9 1.4 1.4 2.8 1.1 3.1 -0.3 0.4 -3.2 0.7 -6.3 0.9 -7.3 0.3 -11.3 1.8 -11.3 4.2 0 1.5 -3.2 5.2 -4.5 5.2 -1.8 0 -11.9 8 -15.8 12.4 -3.8 4.4 -4.8 6.4 -5.7 11.6 -0.6 3.4 -1 7.4 -0.9 8.9 0.1 1.4 -0.4 3.8 -1.1 5.3 -1.2 2.4 -1 3 1.3 5.5 1.5 1.5 3.3 3.6 4 4.7 1.1 1.5 1.7 1.7 3.6 0.7 1.2 -0.7 1.9 -1.6 1.6 -2.1 -0.3 -0.4 -0.1 -2 0.5 -3.4 0.7 -2 0.6 -2.6 -0.5 -2.6 -2.6 0 -2.6 -1.9 0 -4.2 2 -1.7 2.5 -3.1 2.5 -6.9 0 -8 2.1 -11.3 9.2 -14.8 3.5 -1.7 8.1 -3.3 10.4 -3.7 l4.1 -0.6 3.2 6.7 c3.6 7.8 3.5 7.5 1.6 7.5 -1.1 0 -1.4 0.7 -0.9 2.5 0.4 1.5 0.1 3.2 -0.6 4 -0.7 0.9 -1.1 1.8 -0.8 2.1 0.3 0.2 1.3 -0.7 2.2 -2.1 1.4 -2.1 1.5 -2.9 0.5 -4.1 -0.9 -1.1 -0.8 -1.4 0.9 -1.4 1.6 0 2.1 0.7 2.4 3.2 0.2 1.8 0.7 3.1 1.2 3 1.3 -0.5 2.4 1.8 1.9 3.9 -0.4 1.4 -1.3 1.8 -4.5 1.6 -2.1 -0.2 -4.2 -0.8 -4.6 -1.4 -0.5 -0.8 -1.4 -0.4 -2.8 1.2 -1.7 1.9 -1.8 2.5 -0.8 2.9 0.8 0.3 1.4 1.2 1.4 2.1 0 0.8 0.5 1.4 1.2 1.2 0.6 -0.1 1.7 0.9 2.4 2.2 1.2 2.4 1.1 2.6 -2.4 3.8 -2 0.7 -5.2 1.4 -7 1.5 -3 0.1 -3.1 0.2 -1.6 1.9 1.5 1.6 1.4 2.1 -1.4 5.6 -1.7 2.1 -4.2 6.1 -5.7 9 l-2.7 5.2 2.7 5.5 c1.5 3 5.6 9.4 9.1 14.2 6.7 9.1 7.2 10.2 5.2 12.2 -1 1 -1 1.7 0 3.3 0.7 1.1 1 2.4 0.6 3 -0.3 0.5 0 1.6 0.6 2.4 2.3 2.8 -2.9 1.7 -5.5 -1.1 -1.4 -1.5 -2.5 -2.4 -2.5 -2 0 0.4 -0.7 0.1 -1.5 -0.8 -1.9 -1.9 -1.9 -3 0.1 -2.2 0.8 0.3 1.2 0.2 0.9 -0.4 -1.8 -3 -7.5 0.8 -7.5 5 0 4.1 3.1 6.5 10.1 8 4.3 0.9 7 2.1 8.4 3.8 1.5 1.8 2.7 2.3 4.2 1.8 2.8 -0.9 4.7 -5.5 3.4 -8.7 -0.5 -1.4 -0.7 -4.5 -0.4 -7 0.4 -3.3 0 -5.6 -1.5 -8.5 -1.1 -2.1 -2.3 -6.4 -2.7 -9.4 -0.4 -3 -1.9 -7.7 -3.3 -10.5 -3.1 -6 -3.5 -9.9 -1.3 -11.8 2.1 -1.9 15.4 -7.7 17.6 -7.7 3.9 0 11.5 6.3 14.5 12 2.2 4.3 7 19.4 7 22 0 1.1 -1.5 3.3 -3.4 5 -1.8 1.7 -4.2 5.2 -5.1 7.8 -2.2 5.8 -6.8 10.9 -10.7 11.7 -3 0.7 -3.2 0.9 -4.3 5.8 -0.3 1.6 -1.7 4 -3.1 5.4 -1.4 1.4 -2.3 3.1 -2 3.9 0.3 0.7 0 1.6 -0.5 2 -0.6 0.3 -0.8 1.6 -0.5 2.8 0.4 1.6 -0.2 2.9 -1.9 4.4 -4.4 3.9 -2.4 10.3 3.9 12.6 1.5 0.5 1.7 1.3 1.2 3.8 -1 5.1 0.5 5.9 10.3 5.6 6.7 -0.2 8.6 -0.6 8.9 -1.8z m-55.8 -123.1 c0 -1 -0.4 -2 -0.9 -2.3 -0.5 -0.3 -0.9 0.4 -0.8 1.7 0 1.2 -0.3 3.1 -0.7 4.2 -0.8 2 -0.7 2 0.8 0.1 0.9 -1.1 1.6 -2.8 1.6 -3.7z"/>
  <path d="M151.3 207.3 c-2.2 -0.8 -1.4 -2.3 1.3 -2.3 1.5 0 2.4 0.5 2.2 1.2 -0.5 1.4 -1.8 1.8 -3.5 1.1z"/>
  <path d="M155 188 c0 -0.6 0.7 -1.3 1.5 -1.7 2.4 -0.9 2.7 0.1 0.5 1.5 -1.3 0.8 -2 0.8 -2 0.2z"/>
  <path d="M140.6 178.2 c-0.3 -0.6 -0.1 -1.4 0.5 -1.7 1.5 -1 2.5 0.3 1.2 1.6 -0.7 0.7 -1.3 0.7 -1.7 0.1z"/>
  <path d="M187.2 162.3 c-0.5 -1 -1.2 -7.4 -1.4 -14.3 -0.4 -8.3 -0.2 -11.5 0.4 -9.5 0.9 3.1 2.9 24.7 2.3 25.3 -0.2 0.2 -0.8 -0.5 -1.3 -1.5z"/>
  <path d="M127.6 152 c-2.5 -3.3 -4.6 -6.8 -4.6 -7.7 0 -0.9 -1 -2.7 -2.2 -4 l-2.1 -2.3 2.4 -4.5 c3.3 -6.2 8.9 -13.8 9.7 -13.1 0.3 0.4 0 1.2 -0.6 1.8 -0.7 0.7 -1.2 2 -1.2 3.1 0 1 -0.4 1.6 -0.8 1.3 -1.1 -0.6 -5 5.3 -5.5 8.4 -0.5 2.8 2.2 10.3 3 8.3 1 -2.6 3.2 0 3.1 3.7 0 2.3 0.8 5.3 2.2 7.4 3.3 5.5 1.7 4.3 -3.4 -2.4z"/>
  <path d="M143.5 119.1 c-0.8 -2.7 -0.4 -3.3 1.4 -2.2 1 0.6 1.1 1.4 0.3 2.6 -0.9 1.7 -1 1.6 -1.7 -0.4z"/>
  <path d="M159 116.5 c0 -0.9 0.6 -1.2 1.5 -0.9 0.8 0.4 1.2 1 0.9 1.5 -0.8 1.4 -2.4 1 -2.4 -0.6z"/>
  <path d="M173.7 114.6 c-0.9 -0.7 -2.9 -1.1 -4.3 -0.8 -2.1 0.4 -2.5 0.2 -1.9 -0.8 0.6 -0.9 0.4 -1.2 -0.6 -0.8 -0.9 0.4 -1.4 -0.2 -1.5 -1.8 -0.1 -1.3 0.2 -2.4 0.7 -2.4 1.5 0 1 -1.8 -0.7 -2.4 -1.1 -0.4 -2.2 0.1 -3.1 1.4 -1.6 2.3 -3.5 2.7 -2.7 0.5 0.4 -0.9 -0.1 -1.8 -1.1 -2.1 -1.3 -0.5 -1 -1 1.5 -2.5 3.4 -2.1 4.4 -2.4 3.5 -1 -0.3 0.5 0.4 1.3 1.6 1.6 1.4 0.5 2.5 0.2 3 -0.6 1.2 -1.9 1.1 -3.2 -0.1 -2.4 -1.1 0.7 1 -4.7 2.2 -5.5 0.4 -0.3 0.6 -1.4 0.4 -2.4 -0.1 -1 0.1 -4.2 0.6 -7 1 -6.4 1.9 -12.6 2.2 -14.8 0.3 -2.2 1.2 -3.1 3.2 -3.4 1.4 -0.2 1.5 0.5 1 4.6 -0.4 2.7 -1.3 6.7 -2 8.8 -2.5 7 -0.5 17.1 4.6 23 1.5 1.8 2.8 3.7 2.8 4.2 0 0.4 0.3 1.5 0.6 2.3 1.1 3 -7 6.5 -9.9 4.3z m1.3 -3.6 c0 -0.5 -0.4 -1 -1 -1 -1.9 0 -1 -1.8 1.1 -2.3 2.1 -0.6 2.1 -3.4 0 -2.9 -0.6 0.1 -1 -0.4 -0.8 -1 0.1 -0.7 -0.5 -1.3 -1.3 -1.3 -1.5 0 -1.9 4.7 -0.6 8 0.6 1.7 2.6 2 2.6 0.5z"/>
  <path d="M105 109.3 c-0.1 -2.7 -0.1 -2.7 -1.5 -0.9 -1.2 1.6 -1.5 1.7 -1.5 0.4 0 -2 2.6 -4.2 4 -3.3 1.3 0.8 1.3 6.5 0 6.5 -0.5 0 -1 -1.2 -1 -2.7z"/>
  <path d="M152 108 c0 -1.9 0.3 -2.1 1.2 -1.2 0.9 0.9 0.9 1.5 0 2.4 -0.9 0.9 -1.2 0.7 -1.2 -1.2z"/>
  <path d="M151 104 c-1.2 -1.2 -2.6 -1.8 -3.2 -1.4 -0.7 0.4 -0.8 0.3 -0.4 -0.5 0.4 -0.6 1.6 -0.9 2.7 -0.6 1.1 0.4 1.9 0.2 1.9 -0.5 0 -0.7 0.6 -1 1.4 -0.7 0.8 0.3 1.9 0 2.5 -0.6 1.2 -1.5 6.1 -2.1 6.1 -0.7 0 0.6 -1.8 1.8 -3.9 2.7 -2.4 1 -3.7 2.2 -3.4 3 0.8 2 -1.4 1.6 -3.7 -0.7z"/>
  <path d="M102.5 103.4 c1.4 -1.1 1.6 -1.8 0.8 -2.1 -0.7 -0.3 -1.3 -0.8 -1.3 -1.3 0 -0.9 2.6 -0.7 3.6 0.3 0.9 0.8 -2.5 4.7 -4 4.7 -0.6 0 -0.2 -0.8 0.9 -1.6z"/>
  <path d="M162.1 94.4 c-0.1 -1.6 -3.2 -2.7 -4.4 -1.5 -0.5 0.5 -1.9 0.3 -3.5 -0.5 -1.5 -0.8 -3.2 -1.4 -3.9 -1.4 -2.4 0 -2.1 -1.7 0.6 -4.2 2.6 -2.5 3 -2.6 5.5 -1.3 2.9 1.5 4.7 1.6 5.7 0.2 0.4 -0.5 1.5 -0.7 2.5 -0.5 1.4 0.3 0.6 1 -2.7 2.5 -5.7 2.5 -7 4.3 -3.2 4 1.6 -0.1 3.1 -0.6 3.4 -1.1 1.1 -1.4 1.7 0.8 0.8 2.9 -0.4 1.1 -0.8 1.5 -0.8 0.9z"/>
  <path d="M102 84.7 c0 -3 10.4 -13.8 15.9 -16.7 4.6 -2.3 5.1 -2.4 5.1 -1 0 0.6 -0.7 1 -1.5 1 -0.8 0 -1.5 0.4 -1.5 0.9 0 0.5 -1.4 1.4 -3.1 2 -1.7 0.6 -2.8 1.5 -2.4 2.1 0.3 0.5 0.1 1 -0.5 1 -1.3 0 -3 1.7 -4.7 4.8 -1.7 2.8 -1.6 3 0.5 3.5 1.5 0.4 1.5 0.5 0 0.6 -0.9 0 -2 -0.3 -2.3 -0.9 -1.1 -1.7 -2.8 -1.1 -2.3 0.8 0.3 1.2 -0.2 2.4 -1.3 3.1 -1.7 1 -1.9 0.8 -1.9 -1.2z"/>
  <path d="M140.5 84.1 c-1.5 -2.5 -6.2 -15.1 -5.6 -15.1 1.7 0 4.1 2.7 4.5 5.2 0.2 1.5 0.8 3.2 1.1 3.8 0.8 1.2 1.6 7 1 7 -0.2 0 -0.6 -0.4 -1 -0.9z"/>
  <path d="M134 65.5 c-3.7 -2.5 -5.5 -3.1 -4.5 -1.5 0.8 1.3 -1.5 1.3 -3.5 0 -1.2 -0.8 -1.2 -1 0.4 -1.6 1.1 -0.4 1.6 -1.4 1.3 -2.5 -0.4 -1.4 0.3 -2.1 3.1 -2.9 9.3 -2.6 17.3 0.7 10.8 4.4 -3.5 1.9 -4.3 3 -3.8 4.8 0.5 2.2 0.5 2.2 -3.8 -0.7z"/>
  <path d="M164 51.9 c0 -1.2 6.6 -4.9 8.9 -4.9 4.2 0 2 2.7 -3.4 4.2 -3 0.8 -5.5 1.2 -5.5 0.7z"/>
  <path d="M195 50.9 c0 -0.5 0.4 -0.8 0.9 -0.4 0.5 0.3 1.2 0.1 1.6 -0.5 0.3 -0.5 1.2 -1 1.8 -1 0.7 0 0.3 0.7 -0.7 1.5 -2.3 1.8 -3.6 1.9 -3.6 0.4z"/>
  <path d="M182 48 c0 -1.3 2 -1.3 4 0 1.2 0.8 0.9 1 -1.2 1 -1.6 0 -2.8 -0.4 -2.8 -1z"/>
  <path d="M202 44 c0 -0.5 -0.9 -1 -1.9 -1 -1.1 0 -2.6 -0.7 -3.5 -1.5 -0.8 -0.8 -2.1 -1.2 -3 -0.9 -0.8 0.3 -3.1 -0.6 -5.1 -2.1 -2.9 -2.3 -3.3 -3 -2.3 -4.2 1.3 -1.6 6.1 -4.3 7.6 -4.3 0.5 0 2.5 2.4 4.4 5.3 3.5 5.2 5.5 9.7 4.4 9.7 -0.3 0 -0.6 -0.4 -0.6 -1z"/>
  <path d="M138.2 39.8 c-0.7 -0.7 -1.2 -2.6 -1.2 -4.2 0 -2.3 0.3 -2.7 0.9 -1.6 0.6 0.8 0.8 1.8 0.5 2.2 -0.3 0.4 0 1.7 0.6 2.8 1.2 2.3 1 2.6 -0.8 0.8z"/>
  <path d="M180.7 29.4 c-1.5 -0.8 -2.5 -2 -2.1 -2.5 0.4 -0.6 1.4 -0.3 2.7 0.8 2 1.7 2 1.7 -0.1 -1.1 -1.2 -1.6 -2.2 -3.2 -2.2 -3.6 0 -2.2 9.3 -2.8 11.8 -0.8 2.1 1.8 1.5 4.8 -1 4.8 -1.2 0 -3.1 0.9 -4.2 1.9 -1.9 1.8 -2.3 1.8 -4.9 0.5z"/>
 </g>
</svg>